<?xml version="1.0" encoding="UTF-8"?>
<!DOCTYPE svg PUBLIC "-//W3C//DTD SVG 1.1//EN" "http://www.w3.org/Graphics/SVG/1.1/DTD/svg11.dtd">
<!-- Creator: CorelDRAW 2017 -->
<svg xmlns="http://www.w3.org/2000/svg" xml:space="preserve" width="200mm" height="200mm" version="1.1" style="shape-rendering:geometricPrecision; text-rendering:geometricPrecision; image-rendering:optimizeQuality; fill-rule:evenodd; clip-rule:evenodd"
viewBox="0 0 20000 20000"
 xmlns:xlink="http://www.w3.org/1999/xlink">
 <defs>
  <style type="text/css">
   <![CDATA[
    .fil0 {fill:black;fill-rule:nonzero;fill-opacity:0.050980}
   ]]>
  </style>
 </defs>
 <g id="Layer_x0020_1">
  <metadata id="CorelCorpID_0Corel-Layer"/>
  <path class="fil0" d="M10000 2906c1959,0 3732,794 5016,2078 1284,1284 2078,3057 2078,5016 0,1959 -794,3732 -2078,5016 -1284,1284 -3057,2078 -5016,2078 -1959,0 -3732,-794 -5016,-2078 -1284,-1284 -2078,-3057 -2078,-5016 0,-1959 794,-3732 2078,-5016 1284,-1284 3057,-2078 5016,-2078zm-2536 9631c-333,-333 -595,-730 -776,-1167 -180,-434 -275,-899 -275,-1369 0,-471 95,-935 275,-1369 181,-437 443,-834 776,-1167l1277 1277c-171,171 -302,366 -388,575 -87,211 -134,444 -134,685 0,241 46,474 134,685 86,208 217,404 388,575l-1277 1277zm5073 -5073c333,333 595,730 776,1167 180,434 275,899 275,1369 0,471 -95,935 -275,1369 -181,437 -443,834 -776,1167l-1277 -1277c171,-171 302,-366 388,-575 87,-211 134,-444 134,-685 0,-241 -46,-474 -134,-685 -86,-208 -217,-404 -388,-575l1277 -1277zm1203 -1203c-957,-957 -2279,-1549 -3740,-1549 -1460,0 -2783,592 -3740,1549 -957,957 -1549,2279 -1549,3740 0,1460 592,2783 1549,3740 957,957 2279,1549 3740,1549 1460,0 2783,-592 3740,-1549 957,-957 1549,-2279 1549,-3740 0,-1460 -592,-2783 -1549,-3740z"/>
 </g>
</svg>
